<?xml version="1.0" encoding="utf-8"?>
<!-- Generator: Adobe Illustrator 25.0.1, SVG Export Plug-In . SVG Version: 6.00 Build 0)  -->
<svg version="1.1" xmlns="http://www.w3.org/2000/svg" xmlns:xlink="http://www.w3.org/1999/xlink" x="0px" y="0px"
	 viewBox="0 0 160 80" style="enable-background:new 0 0 160 80;" xml:space="preserve">
<style type="text/css">
	.st0{fill:none;}
	.st1{fill:#FFFFFF;}
	.st2{font-family:'EquitanSans-Thin';}
	.st3{font-size:14.5978px;}
	.st4{fill:#872EFF;}
</style>
<g id="BACKGROUND">
</g>
<g id="OBJECTS">
	<g>
		<text transform="matrix(0.9969 0 0 1 14.7343 75.8962)" class="st1 st2 st3">Crea, innova y transforma</text>
		<path class="st4" d="M34,16.8c0-8.6-7-15.6-15.6-15.6C9.9,1.2,2.9,8.2,2.9,16.7c0,0.2,0,0.4,0,0.6v55.4c0,1.6,1.2,3,2.9,3.1
			c1.7,0.1,3.2-1.3,3.2-3V17.3c0-0.2,0-0.4,0-0.5c0.1-0.6,0.4-1.2,0.9-1.7c0.7-0.7,1.3-1,2.2-1c0.9,0,1.7,0.3,2.3,1
			c0.4,0.5,0.7,1,0.8,1.8c0.1,0.3,0.1,0.7,0.1,1.1l0.1,40.6c0,1.8,1.5,3.2,3.2,3.1c1.7-0.1,3-1.5,3-3.2l0-33.9l0,0
			c0-0.2,0-0.4,0.1-0.6c0.2-0.4,0.4-0.8,0.8-1.1c0.7-0.7,1.3-1,2.2-1c0.9,0,1.7,0.3,2.3,1c0.5,0.5,0.7,1.1,0.8,1.8
			c0,0.2,0,0.4,0,0.5v27.3c0,1.8,1.4,3.2,3.2,3.2c1.7,0,3.1-1.4,3.1-3.1v-35C34,17.2,34,17,34,16.8L34,16.8z M27.5,16.1
			c0,1.6-1.3,2.9-2.9,2.9h-0.5c-1.6,0-2.9-1.3-2.9-2.9v-3.3c0-1.6,1.3-2.9,2.9-2.9h0.5c1.6,0,2.9,1.3,2.9,2.9V16.1z"/>
		<path class="st4" d="M68.1,19.4l6,11.9c1,2,1,4.4-0.2,6.3l-7.3,12.9L68.1,19.4z"/>
		<g>
			<path class="st1" d="M58,14.2H46.2v23.3h8.2v6.6h-8.2v9.2H58v6.6h-18V7.7h18V14.2z"/>
			<path class="st1" d="M78.2,9.1c1.4,0.9,2.6,2.1,3.5,3.6c0.8,1.6,1.3,3.2,1.3,5.1v32.3c0,1.7-0.4,3.4-1.3,4.8
				c-0.9,1.6-2.1,2.8-3.5,3.7c-1.5,1-3.1,1.4-4.7,1.4h-9.5V7.8h9.5C75.1,7.8,76.7,8.3,78.2,9.1z M73.5,53.4c0.9,0,1.6-0.4,2.3-1
				c0.6-0.7,0.9-1.5,0.9-2.3V17.7c0-1-0.3-1.9-0.9-2.6c-0.6-0.7-1.3-1-2.3-1h-3.3v39.3H73.5z"/>
			<path class="st1" d="M107.6,50.4c0,1.7-0.4,3.4-1.3,4.8c-0.8,1.4-2,2.6-3.4,3.4c-1.5,0.9-3.1,1.3-4.8,1.3c-1.6,0-3.1-0.4-4.5-1.3
				c-1.4-0.8-2.5-2-3.4-3.5c-0.8-1.4-1.3-3-1.3-4.7V7.8h6v42.6c0,0.8,0.4,1.6,1,2.2c0.7,0.7,1.3,1,2.1,1c1,0,1.7-0.4,2.3-1
				c0.6-0.7,0.9-1.4,0.9-2.2V7.8h6.3V50.4z"/>
			<path class="st1" d="M125.3,15c-0.7-0.7-1.3-1-2.2-1c-1,0-1.7,0.3-2.3,1s-0.9,1.5-0.9,2.3v7.6l12.4,14.5v10.7
				c0,1.7-0.4,3.4-1.2,4.8c-0.8,1.6-1.9,2.8-3.4,3.7c-1.4,1-3,1.4-4.6,1.4c-1.8,0-3.4-0.4-4.8-1.4c-1.4-0.9-2.6-2.1-3.4-3.7
				c-0.8-1.5-1.3-3.1-1.3-4.8v-8.6h6.3v8.6c0,0.8,0.3,1.6,0.9,2.2c0.6,0.7,1.3,1,2.3,1c0.8,0,1.5-0.4,2.2-1c0.7-0.7,1-1.4,1-2.2
				v-8.6l-12.7-14.8v-9.2c0-1.7,0.4-3.4,1.3-4.8s2-2.6,3.4-3.5c1.4-0.8,3.1-1.3,4.8-1.3c1.6,0,3.2,0.4,4.6,1.3
				c1.4,0.9,2.5,2.1,3.4,3.5c0.8,1.5,1.2,3.1,1.2,4.8v7.6h-6v-7.6C126.2,16.5,125.9,15.7,125.3,15z"/>
			<path class="st1" d="M157.2,60h-6.3l-0.1-13.8l-6.3,4.5V60h-6.3l0.1-42.3c0-1.9,0.4-3.5,1.3-5.1c0.8-1.5,1.9-2.7,3.3-3.6
				c1.4-0.8,3-1.3,4.6-1.3c2.7,0,5,1,6.8,2.8c1.9,2.1,2.7,4.7,2.8,7V60z M150.8,38.7v-21c0-1-0.3-1.9-0.9-2.6c-0.6-0.7-1.4-1-2.3-1
				c-0.8,0-1.5,0.4-2.2,1c-0.4,0.4-0.7,1-0.9,1.5V43L150.8,38.7z"/>
		</g>
	</g>
</g>
<g id="DESIGNED_BY_FREEPIK">
</g>
</svg>
